<?xml version="1.0" standalone="no"?><svg xmlns="http://www.w3.org/2000/svg" viewBox="0 0 1440 320"><path fill="#0099ff" fill-opacity="1" d="M0,192L10.9,176C21.8,160,44,128,65,117.3C87.3,107,109,117,131,138.7C152.7,160,175,192,196,192C218.2,192,240,160,262,122.7C283.6,85,305,43,327,32C349.1,21,371,43,393,64C414.5,85,436,107,458,144C480,181,502,235,524,240C545.5,245,567,203,589,192C610.9,181,633,203,655,224C676.4,245,698,267,720,272C741.8,277,764,267,785,250.7C807.3,235,829,213,851,218.7C872.7,224,895,256,916,272C938.2,288,960,288,982,245.3C1003.6,203,1025,117,1047,85.3C1069.1,53,1091,75,1113,96C1134.5,117,1156,139,1178,149.3C1200,160,1222,160,1244,170.7C1265.5,181,1287,203,1309,181.3C1330.9,160,1353,96,1375,80C1396.4,64,1418,96,1429,112L1440,128L1440,0L1429.1,0C1418.2,0,1396,0,1375,0C1352.7,0,1331,0,1309,0C1287.3,0,1265,0,1244,0C1221.8,0,1200,0,1178,0C1156.4,0,1135,0,1113,0C1090.9,0,1069,0,1047,0C1025.5,0,1004,0,982,0C960,0,938,0,916,0C894.5,0,873,0,851,0C829.1,0,807,0,785,0C763.6,0,742,0,720,0C698.2,0,676,0,655,0C632.7,0,611,0,589,0C567.3,0,545,0,524,0C501.8,0,480,0,458,0C436.4,0,415,0,393,0C370.9,0,349,0,327,0C305.5,0,284,0,262,0C240,0,218,0,196,0C174.5,0,153,0,131,0C109.1,0,87,0,65,0C43.6,0,22,0,11,0L0,0Z"></path></svg>